<svg xmlns="http://www.w3.org/2000/svg" width="520" height="520" viewBox="0 0 26 26">
    <path d="M 12.4375 0.1875 L 0 5.09375 L 0 18.53125 L 15 25.90625 L 26 18.53125 L 26 5.15625 L 26 5.09375 L 12.4375 0.1875 z M 12.46875 2.34375 L 23.6875 6.375 L 20.53125 8.0625 L 9.15625 3.65625 L 12.46875 2.34375 z M 7.75 4.1875 L 19.34375 8.6875 L 15.59375 10.65625 L 3.4375 5.90625 L 7.75 4.1875 z M 2.0625 6.4375 L 15 11.5 L 15 23.5 L 14.84375 23.59375 L 2 17.28125 L 2 6.46875 L 2.0625 6.4375 z M 22 9.5 C 22.170906 9.4865 22.27375 9.6075 22.28125 9.84375 C 22.29125 10.15575 22.10275 10.54775 21.84375 10.71875 L 19.84375 12.03125 C 19.53075 12.23425 19.263 12.104 19.25 11.75 C 19.238 11.395 19.46625 10.936 19.78125 10.75 L 21.8125 9.5625 C 21.8775 9.52325 21.943031 9.5045 22 9.5 z"/>
</svg>